<svg width="117" height="90" viewBox="0 0 117 90" fill="none" xmlns="http://www.w3.org/2000/svg">
<path d="M110.412 28.3223C113.726 28.3223 116.412 31.0086 116.412 34.3223V83.3223C116.412 86.6359 113.726 89.3222 110.412 89.3223H37.4121C34.0984 89.3223 31.4121 86.636 31.4121 83.3223V75.6758H94.4482C97.762 75.6758 100.448 72.9895 100.448 69.6758V28.3223H110.412ZM31.4121 75.6758H21.4482C18.1347 75.6756 15.4482 72.9894 15.4482 69.6758V61H31.4121V75.6758ZM85 55C85 58.3137 82.3137 61 79 61H31.4121V34.3223C31.4121 31.0086 34.0984 28.3223 37.4121 28.3223H85V55ZM79 0C82.3137 0 85 2.68629 85 6V14.6758H21.4482C18.1348 14.6759 15.4484 17.3623 15.4482 20.6758V61H6C2.68629 61 6.44277e-08 58.3137 0 55V6C6.44277e-08 2.68629 2.68629 1.48984e-07 6 0H79ZM94.4482 14.6758C97.7618 14.6758 100.448 17.3622 100.448 20.6758V28.3223H85V14.6758H94.4482Z" fill="white"/>
</svg>
